<svg width="483" height="493" viewBox="0 0 483 493" fill="none" xmlns="http://www.w3.org/2000/svg">
<path d="M241.18 482.36C374.38 482.36 482.36 374.38 482.36 241.18C482.36 107.98 374.38 0 241.18 0C107.98 0 0 107.98 0 241.18C0 374.38 107.98 482.36 241.18 482.36Z" fill="url(#paint0_radial_862_12479)"/>
<g style="mix-blend-mode:soft-light">
<path d="M241.18 482.36C374.38 482.36 482.36 374.38 482.36 241.18C482.36 107.98 374.38 0 241.18 0C107.98 0 0 107.98 0 241.18C0 374.38 107.98 482.36 241.18 482.36Z" fill="url(#paint1_radial_862_12479)"/>
</g>
<g style="mix-blend-mode:soft-light">
<path d="M241.18 482.36C374.38 482.36 482.36 374.38 482.36 241.18C482.36 107.98 374.38 0 241.18 0C107.98 0 0 107.98 0 241.18C0 374.38 107.98 482.36 241.18 482.36Z" fill="url(#paint2_radial_862_12479)"/>
</g>
<g style="mix-blend-mode:overlay">
<path d="M241.18 482.36C374.38 482.36 482.36 374.38 482.36 241.18C482.36 107.98 374.38 0 241.18 0C107.98 0 0 107.98 0 241.18C0 374.38 107.98 482.36 241.18 482.36Z" fill="url(#paint3_radial_862_12479)" fill-opacity="0.7"/>
</g>
<mask id="mask0_862_12479" style="mask-type:alpha" maskUnits="userSpaceOnUse" x="0" y="0" width="483" height="483">
<path d="M241.18 482.36C374.38 482.36 482.36 374.38 482.36 241.18C482.36 107.98 374.38 0 241.18 0C107.98 0 0 107.98 0 241.18C0 374.38 107.98 482.36 241.18 482.36Z" fill="white"/>
</mask>
<g mask="url(#mask0_862_12479)">
<g filter="url(#filter0_f_862_12479)">
<path d="M-1.37541 234.299C-1.11353 230.872 0.0141891 230.529 0.343108 234.008C0.708543 237.874 -0.00182796 245.646 0.169198 250.335C0.622042 262.748 2.5249 273.541 4.48654 282.32C10.808 310.612 19.5622 328.843 27.7273 344.288C54.5668 395.06 83.9672 420.77 112.648 440.147C154.69 468.549 197.073 477.584 239.491 479.5C240.561 479.548 240.739 486.518 239.686 487.425C237.788 489.061 235.437 487.437 233.495 487.369C227.915 487.174 222.336 486.791 216.756 486.211C200.213 484.492 183.671 480.991 167.162 475.358C122.275 460.044 73.877 433.821 31.6097 359.962C28.9507 355.316 26.3128 350.424 23.7123 345.167C21.6325 340.963 19.573 336.556 17.5498 331.843C10.895 316.342 -4.61274 276.658 -1.37541 234.299ZM239.52 487.5C238.5 487.531 238.241 481.034 239.214 479.685C240.685 477.647 242.889 479.326 244.439 479.229C250.878 478.826 257.315 478.229 263.75 477.421C281.396 475.205 299.028 471.422 316.621 465.596C360.257 451.145 407.17 429.115 448.305 361.431C450.923 357.123 453.519 352.553 456.079 347.641C463.86 332.712 483.362 293.084 481.107 243.821C480.917 239.668 482.182 237.181 482.748 240.743C483.468 245.279 483.176 254.736 482.977 259.768C482.342 275.883 479.867 289.512 477.257 300.518C468.987 335.399 457.377 355.623 446.744 372.51C412.184 427.397 374.649 449.524 338.156 465.424C305.425 479.686 272.445 486.484 239.52 487.5Z" fill="#401C02"/>
</g>
<g filter="url(#filter1_f_862_12479)">
<path d="M-1.37541 234.299C-1.11353 230.872 0.0141891 230.529 0.343108 234.008C0.708543 237.874 -0.00182796 245.646 0.169198 250.335C0.622042 262.748 2.5249 273.541 4.48654 282.32C10.808 310.612 19.5622 328.843 27.7273 344.288C54.5668 395.06 83.9672 420.77 112.648 440.147C154.69 468.549 197.073 477.584 239.491 479.5C240.561 479.548 240.739 486.518 239.686 487.425C237.788 489.061 235.437 487.437 233.495 487.369C227.915 487.174 222.336 486.791 216.756 486.211C200.213 484.492 183.671 480.991 167.162 475.358C122.275 460.044 73.877 433.821 31.6097 359.962C28.9507 355.316 26.3128 350.424 23.7123 345.167C21.6325 340.963 19.573 336.556 17.5498 331.843C10.895 316.342 -4.61274 276.658 -1.37541 234.299ZM239.52 487.5C238.5 487.531 238.241 481.034 239.214 479.685C240.685 477.647 242.889 479.326 244.439 479.229C250.878 478.826 257.315 478.229 263.75 477.421C281.396 475.205 299.028 471.422 316.621 465.596C360.257 451.145 407.17 429.115 448.305 361.431C450.923 357.123 453.519 352.553 456.079 347.641C463.86 332.712 483.362 293.084 481.107 243.821C480.917 239.668 482.182 237.181 482.748 240.743C483.468 245.279 483.176 254.736 482.977 259.768C482.342 275.883 479.867 289.512 477.257 300.518C468.987 335.399 457.377 355.623 446.744 372.51C412.184 427.397 374.649 449.524 338.156 465.424C305.425 479.686 272.445 486.484 239.52 487.5Z" fill="#401C02"/>
</g>
</g>
<g filter="url(#filter2_f_862_12479)">
<circle cx="118" cy="296" r="50" fill="#E66200" fill-opacity="0.75"/>
</g>
<g filter="url(#filter3_f_862_12479)">
<circle cx="365" cy="296" r="50" fill="#E66200" fill-opacity="0.75"/>
</g>
<path d="M206.541 209.99C206.593 218.729 205.243 227.419 202.541 235.73C202.259 236.666 201.689 237.489 200.911 238.082C200.134 238.674 199.189 239.006 198.211 239.03C197.094 238.995 196.026 238.565 195.196 237.816C194.367 237.067 193.83 236.048 193.681 234.94C190.601 216.48 178.621 202.72 164.311 202.72C150.001 202.72 137.941 216.52 134.871 234.99C134.721 236.097 134.183 237.115 133.354 237.863C132.525 238.612 131.458 239.043 130.341 239.08C129.363 239.057 128.416 238.725 127.637 238.133C126.858 237.54 126.285 236.717 126.001 235.78C123.3 227.469 121.949 218.779 122.001 210.04C122.001 176.79 140.931 149.83 164.301 149.83C187.671 149.83 206.541 176.78 206.541 209.99Z" fill="url(#paint4_radial_862_12479)"/>
<path d="M206.541 209.99C206.593 218.729 205.243 227.419 202.541 235.73C202.259 236.666 201.689 237.489 200.911 238.082C200.134 238.674 199.189 239.006 198.211 239.03V239.03C197.094 238.995 196.026 238.565 195.196 237.816C194.367 237.067 193.83 236.048 193.681 234.94C190.601 216.48 178.621 202.72 164.311 202.72C150.001 202.72 137.941 216.52 134.871 234.99C134.721 236.097 134.183 237.115 133.354 237.863C132.525 238.612 131.458 239.043 130.341 239.08V239.08C129.363 239.057 128.416 238.725 127.637 238.133C126.858 237.54 126.285 236.717 126.001 235.78C123.3 227.469 121.949 218.779 122.001 210.04C122.001 176.79 140.931 149.83 164.301 149.83C187.671 149.83 206.541 176.78 206.541 209.99Z" stroke="url(#paint5_linear_862_12479)" stroke-width="2.5" stroke-miterlimit="10"/>
<path d="M360.922 209.99C360.958 218.732 359.59 227.422 356.872 235.73C356.589 236.668 356.017 237.492 355.238 238.085C354.458 238.678 353.511 239.009 352.532 239.03C351.415 238.995 350.346 238.565 349.517 237.816C348.687 237.067 348.15 236.048 348.002 234.94C344.922 216.48 332.942 202.72 318.632 202.72C304.322 202.72 292.322 216.52 289.252 234.99C289.103 236.098 288.566 237.117 287.737 237.866C286.907 238.615 285.839 239.045 284.722 239.08C283.744 239.057 282.8 238.725 282.022 238.132C281.244 237.539 280.674 236.716 280.392 235.78C277.665 227.457 276.294 218.749 276.332 209.99C276.332 176.74 295.262 149.78 318.632 149.78C342.002 149.78 360.922 176.78 360.922 209.99Z" fill="url(#paint6_radial_862_12479)"/>
<path d="M360.922 209.99C360.958 218.732 359.59 227.422 356.872 235.73C356.589 236.668 356.017 237.492 355.238 238.085C354.458 238.678 353.511 239.009 352.532 239.03C351.415 238.995 350.346 238.565 349.517 237.816C348.687 237.067 348.15 236.048 348.002 234.94C344.922 216.48 332.942 202.72 318.632 202.72C304.322 202.72 292.322 216.52 289.252 234.99C289.103 236.098 288.566 237.117 287.737 237.866C286.907 238.615 285.839 239.045 284.722 239.08C283.744 239.057 282.8 238.725 282.022 238.132C281.244 237.539 280.674 236.716 280.392 235.78C277.665 227.457 276.294 218.749 276.332 209.99C276.332 176.74 295.262 149.78 318.632 149.78C342.002 149.78 360.922 176.78 360.922 209.99Z" fill="url(#paint7_radial_862_12479)"/>
<path d="M360.922 209.99C360.958 218.732 359.59 227.422 356.872 235.73C356.589 236.668 356.017 237.492 355.238 238.085C354.458 238.678 353.511 239.009 352.532 239.03C351.415 238.995 350.346 238.565 349.517 237.816C348.687 237.067 348.15 236.048 348.002 234.94C344.922 216.48 332.942 202.72 318.632 202.72C304.322 202.72 292.322 216.52 289.252 234.99C289.103 236.098 288.566 237.117 287.737 237.866C286.907 238.615 285.839 239.045 284.722 239.08V239.08C283.744 239.057 282.8 238.725 282.022 238.132C281.244 237.539 280.674 236.716 280.392 235.78C277.665 227.457 276.294 218.749 276.332 209.99C276.332 176.74 295.262 149.78 318.632 149.78C342.002 149.78 360.922 176.78 360.922 209.99Z" stroke="url(#paint8_linear_862_12479)" stroke-width="2.5" stroke-miterlimit="10"/>
<mask id="mask1_862_12479" style="mask-type:alpha" maskUnits="userSpaceOnUse" x="0" y="0" width="483" height="483">
<g style="mix-blend-mode:soft-light">
<path d="M241.18 482.36C374.38 482.36 482.36 374.38 482.36 241.18C482.36 107.98 374.38 0 241.18 0C107.98 0 0 107.98 0 241.18C0 374.38 107.98 482.36 241.18 482.36Z" fill="url(#paint9_radial_862_12479)"/>
</g>
</mask>
<g mask="url(#mask1_862_12479)">
<g filter="url(#filter4_f_862_12479)">
<path d="M293.923 289.042C293.114 288.986 292.301 288.986 291.491 289.042C287.455 289.282 283.635 290.951 280.711 293.753C279.706 294.709 278.826 295.788 278.091 296.965L264.005 319.65C265.991 316.442 266.856 312.662 266.464 308.906C266.072 305.15 264.445 301.632 261.839 298.907C259.233 296.182 255.797 294.404 252.073 293.855C248.349 293.305 244.548 294.015 241.27 295.872C238.796 297.26 236.713 299.253 235.213 301.666L186.485 379.941C186.251 380.317 185.895 380.602 185.478 380.749C185.06 380.895 184.605 380.894 184.188 380.746C183.771 380.597 183.416 380.311 183.184 379.933C182.951 379.556 182.853 379.11 182.908 378.669L185.443 358.048C186.795 347.233 178.438 337.181 166.878 335.73C155.318 334.28 144.744 341.939 143.401 352.753L137.26 401.834C133.361 417.642 134.529 434.28 140.598 449.383C146.667 464.486 157.329 477.285 171.066 485.959L184.504 494.372C200.885 504.568 220.478 508.241 239.423 504.667C258.369 501.092 275.293 490.53 286.862 475.06C287.563 474.318 288.192 473.51 288.74 472.648L342.351 386.535C347.29 378.603 345.168 367.572 337.271 362.598C333.463 360.239 328.885 359.476 324.522 360.471C320.159 361.467 316.36 364.142 313.944 367.92L323.466 352.631C325.864 348.804 326.647 344.179 325.645 339.773C324.643 335.367 321.937 331.541 318.123 329.136C314.309 326.731 309.699 325.945 305.306 326.95C300.914 327.956 297.1 330.67 294.703 334.496L306.911 314.968C309.282 311.137 310.046 306.52 309.034 302.126C308.022 297.732 305.317 293.919 301.511 291.52C299.218 290.093 296.615 289.243 293.923 289.042Z" fill="#42210B"/>
</g>
</g>
<path d="M298.236 262.045C297.374 261.985 296.509 261.985 295.646 262.045C291.348 262.3 287.28 264.071 284.166 267.045C283.097 268.06 282.159 269.205 281.376 270.455L266.376 294.535C268.492 291.13 269.413 287.117 268.995 283.131C268.578 279.144 266.845 275.409 264.07 272.516C261.295 269.624 257.636 267.737 253.67 267.153C249.704 266.57 245.657 267.324 242.166 269.295C239.532 270.768 237.313 272.883 235.716 275.445L183.826 358.535C183.577 358.935 183.198 359.237 182.753 359.392C182.308 359.548 181.824 359.547 181.38 359.389C180.935 359.232 180.558 358.928 180.31 358.527C180.062 358.126 179.959 357.653 180.016 357.185L182.716 335.295C184.156 323.815 175.256 313.145 162.946 311.605C150.636 310.065 139.376 318.195 137.946 329.675L131.406 381.775C127.254 398.555 128.498 416.216 134.961 432.248C141.424 448.28 152.778 461.867 167.406 471.075L181.716 480.005C199.16 490.829 220.025 494.727 240.199 490.933C260.374 487.139 278.397 475.926 290.716 459.505C291.463 458.717 292.133 457.86 292.716 456.945L349.806 365.535C355.066 357.115 352.806 345.405 344.396 340.125C340.342 337.622 335.467 336.811 330.821 337.868C326.174 338.925 322.129 341.764 319.556 345.775L329.696 329.545C332.249 325.483 333.084 320.574 332.017 315.897C330.95 311.219 328.068 307.158 324.006 304.605C319.945 302.052 315.035 301.218 310.358 302.285C305.681 303.352 301.619 306.233 299.066 310.295L312.066 289.565C314.592 285.499 315.405 280.598 314.328 275.933C313.25 271.269 310.37 267.221 306.316 264.675C303.874 263.161 301.102 262.258 298.236 262.045Z" fill="url(#paint10_radial_862_12479)"/>
<g style="mix-blend-mode:color-burn">
<mask id="mask2_862_12479" style="mask-type:alpha" maskUnits="userSpaceOnUse" x="129" y="262" width="224" height="231">
<path d="M298.236 262.045C297.374 261.985 296.509 261.985 295.646 262.045C291.348 262.3 287.28 264.071 284.166 267.045C283.097 268.06 282.159 269.205 281.376 270.455L266.376 294.535C268.492 291.13 269.413 287.117 268.995 283.131C268.578 279.144 266.845 275.409 264.07 272.516C261.295 269.624 257.636 267.737 253.67 267.153C249.704 266.57 245.657 267.324 242.166 269.295C239.532 270.768 237.313 272.883 235.716 275.445L183.826 358.535C183.577 358.935 183.198 359.237 182.753 359.392C182.308 359.548 181.824 359.547 181.38 359.389C180.935 359.232 180.558 358.928 180.31 358.527C180.062 358.126 179.959 357.653 180.016 357.185L182.716 335.295C184.156 323.815 175.256 313.145 162.946 311.605C150.636 310.065 139.376 318.195 137.946 329.675L131.406 381.775C127.254 398.555 128.498 416.216 134.961 432.248C141.424 448.28 152.778 461.867 167.406 471.075L181.716 480.005C199.16 490.829 220.025 494.727 240.199 490.933C260.374 487.139 278.397 475.926 290.716 459.505C291.463 458.717 292.133 457.86 292.716 456.945L349.806 365.535C355.066 357.115 352.806 345.405 344.396 340.125C340.342 337.622 335.467 336.811 330.821 337.868C326.174 338.925 322.129 341.764 319.556 345.775L329.696 329.545C332.249 325.483 333.084 320.574 332.017 315.897C330.95 311.219 328.068 307.158 324.006 304.605C319.945 302.052 315.035 301.218 310.358 302.285C305.681 303.352 301.619 306.233 299.066 310.295L312.066 289.565C314.592 285.499 315.405 280.598 314.328 275.933C313.25 271.269 310.37 267.221 306.316 264.675C303.874 263.161 301.102 262.258 298.236 262.045Z" fill="url(#paint11_radial_862_12479)"/>
</mask>
<g mask="url(#mask2_862_12479)">
<g style="mix-blend-mode:color-burn" filter="url(#filter5_f_862_12479)">
<path d="M130 390.761C131.333 377.668 132.75 364.585 134.25 351.511C135 344.981 135.7 338.431 136.52 331.901C136.61 331.091 136.71 330.271 136.86 329.411C137.012 328.566 137.219 327.73 137.48 326.911C137.995 325.268 138.714 323.696 139.62 322.231C141.445 319.307 143.923 316.846 146.86 315.041C149.79 313.243 153.066 312.084 156.475 311.64C159.883 311.195 163.347 311.475 166.64 312.461C169.942 313.423 172.995 315.094 175.585 317.356C178.176 319.619 180.242 322.419 181.64 325.561C183.011 328.731 183.568 332.192 183.26 335.631C182.96 338.951 182.62 342.191 182.26 345.461C181.58 352.001 180.82 358.541 179.92 365.071C180.12 358.481 180.46 351.901 180.92 345.331C181.12 342.051 181.29 338.731 181.58 335.491C181.832 332.341 181.289 329.177 180 326.291C178.69 323.407 176.765 320.844 174.361 318.782C171.956 316.719 169.13 315.207 166.08 314.351C163.047 313.448 159.859 313.185 156.719 313.579C153.579 313.974 150.556 315.016 147.84 316.641C145.133 318.274 142.843 320.513 141.15 323.181C140.307 324.512 139.635 325.943 139.15 327.441C138.909 328.189 138.712 328.951 138.56 329.721C138.43 330.481 138.32 331.291 138.22 332.121C137.4 338.651 136.45 345.121 135.58 351.681C133.813 364.721 131.953 377.748 130 390.761Z" fill="#42210B"/>
<path d="M177.87 368.331C183.71 358.551 189.67 348.831 195.56 339.081L213.43 309.981C219.37 300.251 225.43 290.601 231.43 280.911L233.68 277.281C234.07 276.671 234.4 276.081 234.85 275.461C235.257 274.831 235.712 274.233 236.21 273.671C238.151 271.368 240.626 269.576 243.42 268.451C246.202 267.298 249.219 266.825 252.22 267.071C255.233 267.291 258.148 268.242 260.711 269.841C263.274 271.441 265.409 273.641 266.93 276.251C268.47 278.843 269.372 281.763 269.56 284.771C269.752 287.765 269.217 290.76 268 293.501C267.717 294.192 267.383 294.86 267 295.501C266.64 296.181 266.24 296.731 265.87 297.351L263.61 300.981C257.53 310.621 251.52 320.301 245.38 329.901L227 358.741C220.82 368.311 214.7 377.931 208.47 387.471C214.32 377.691 220.27 367.971 226.16 358.221L244.03 329.071C249.97 319.351 256.03 309.701 262.03 300.011L264.29 296.381C264.65 295.771 265.07 295.161 265.37 294.571C265.717 293.991 266.021 293.386 266.28 292.761C267.356 290.274 267.813 287.564 267.61 284.861C267.428 282.157 266.605 279.535 265.21 277.211C263.824 274.897 261.908 272.944 259.62 271.513C257.333 270.082 254.738 269.215 252.05 268.981C249.352 268.745 246.637 269.156 244.13 270.181C241.609 271.185 239.371 272.788 237.61 274.851C237.158 275.351 236.747 275.886 236.38 276.451C235.98 276.981 235.62 277.631 235.23 278.221L233 281.831C226.93 291.471 220.91 301.151 214.77 310.751L196.39 339.601C190.21 349.171 184.1 358.791 177.87 368.331Z" fill="#42210B"/>
<path d="M254.21 382.501C256.877 378.035 259.543 373.581 262.21 369.141C264.89 364.701 267.53 360.241 270.21 355.821L286.43 329.271L294.62 316.041L296.62 312.741L297.62 311.081C297.97 310.521 298.36 309.951 298.77 309.411C300.433 307.232 302.552 305.444 304.98 304.171C307.406 302.893 310.079 302.151 312.817 301.996C315.555 301.841 318.295 302.276 320.85 303.271C323.406 304.271 325.711 305.821 327.6 307.811C330.436 310.814 332.223 314.654 332.694 318.757C333.164 322.86 332.293 327.005 330.21 330.571L322 343.781L313.76 356.981L305.41 370.111L288.7 396.331C283.08 405.041 277.51 413.791 271.84 422.481C277.16 413.571 282.57 404.721 287.94 395.851L304.19 369.321L312.33 356.051L320.53 342.841L328.71 329.641C330.57 326.426 331.338 322.694 330.898 319.005C330.458 315.316 328.834 311.869 326.27 309.181C324.561 307.415 322.5 306.028 320.22 305.111C317.929 304.207 315.47 303.805 313.01 303.933C310.549 304.06 308.145 304.715 305.96 305.851C303.772 306.989 301.858 308.59 300.35 310.541C299.97 311.031 299.63 311.541 299.29 312.061L298.29 313.711L296.18 316.981L287.9 330.171L271.15 356.391C268.38 360.771 265.52 365.101 262.71 369.461C259.9 373.821 257.07 378.171 254.21 382.501Z" fill="#42210B"/>
<path d="M287.43 397.521C292.136 389.421 296.92 381.365 301.78 373.351L309.05 361.351L316.43 349.351L318.27 346.351C318.925 345.308 319.678 344.33 320.52 343.431C322.216 341.618 324.255 340.16 326.52 339.141C331.065 337.062 336.243 336.84 340.95 338.521C343.279 339.368 345.419 340.666 347.247 342.341C349.074 344.015 350.553 346.034 351.6 348.281C353.715 352.8 353.984 357.967 352.35 362.681C351.94 363.843 351.418 364.962 350.79 366.021C350.16 367.071 349.54 368.021 348.92 369.021L345.18 375.021L337.71 386.921C332.71 394.861 327.71 402.741 322.71 410.651C312.71 426.478 302.596 442.251 292.37 457.971C302.016 441.911 311.75 425.911 321.57 409.971C326.49 401.971 331.34 393.971 336.3 386.041L343.71 374.101L347.41 368.101C348.02 367.101 348.67 366.101 349.24 365.101C349.8 364.149 350.266 363.144 350.63 362.101C351.723 358.936 351.864 355.52 351.036 352.275C350.208 349.03 348.447 346.1 345.971 343.845C343.495 341.59 340.413 340.111 337.105 339.589C333.797 339.068 330.409 339.528 327.36 340.911C325.331 341.825 323.5 343.126 321.97 344.741C321.221 345.552 320.551 346.433 319.97 347.371L318.1 350.371L310.59 362.251L302.84 373.981C297.79 381.901 292.63 389.731 287.43 397.521Z" fill="#42210B"/>
<path d="M223.57 363.361C229.41 353.581 235.37 343.861 241.26 334.111L259.14 304.981C265.07 295.251 271.14 285.591 277.14 275.911L279.4 272.281C279.78 271.671 280.11 271.071 280.56 270.451C280.968 269.821 281.422 269.223 281.92 268.661C283.864 266.361 286.339 264.57 289.13 263.441C291.913 262.293 294.929 261.82 297.93 262.061C300.939 262.311 303.847 263.263 306.42 264.841C308.968 266.461 311.098 268.657 312.64 271.251C314.179 273.84 315.08 276.756 315.27 279.761C315.478 282.769 314.953 285.782 313.74 288.541C313.457 289.232 313.123 289.901 312.74 290.541C312.38 291.221 311.99 291.771 311.61 292.391L309.31 295.981C303.23 305.621 297.22 315.301 291.08 324.901L272.74 353.761C266.56 363.341 260.44 372.951 254.21 382.501C260.06 372.711 266.01 363.001 271.91 353.241L289.78 324.101C295.71 314.371 301.78 304.721 307.78 295.031L310 291.401C310.36 290.801 310.78 290.181 311.08 289.601C311.431 289.023 311.735 288.418 311.99 287.791C313.067 285.301 313.524 282.587 313.32 279.881C313.138 277.18 312.316 274.561 310.92 272.241C309.54 269.917 307.625 267.954 305.335 266.518C303.044 265.081 300.444 264.212 297.75 263.981C295.052 263.745 292.337 264.156 289.83 265.181C287.31 266.181 285.072 267.781 283.31 269.841C282.863 270.349 282.453 270.887 282.08 271.451C281.69 271.981 281.32 272.631 280.94 273.221L278.66 276.841C272.59 286.481 266.57 296.161 260.43 305.761L242.09 334.621C235.92 344.201 229.8 353.811 223.57 363.361Z" fill="#42210B"/>
</g>
</g>
</g>
<defs>
<filter id="filter0_f_862_12479" x="-26.8145" y="206.558" width="535.021" height="306.595" filterUnits="userSpaceOnUse" color-interpolation-filters="sRGB">
<feFlood flood-opacity="0" result="BackgroundImageFix"/>
<feBlend mode="normal" in="SourceGraphic" in2="BackgroundImageFix" result="shape"/>
<feGaussianBlur stdDeviation="12.5" result="effect1_foregroundBlur_862_12479"/>
</filter>
<filter id="filter1_f_862_12479" x="-41.8145" y="191.558" width="565.021" height="336.595" filterUnits="userSpaceOnUse" color-interpolation-filters="sRGB">
<feFlood flood-opacity="0" result="BackgroundImageFix"/>
<feBlend mode="normal" in="SourceGraphic" in2="BackgroundImageFix" result="shape"/>
<feGaussianBlur stdDeviation="20" result="effect1_foregroundBlur_862_12479"/>
</filter>
<filter id="filter2_f_862_12479" x="8" y="186" width="220" height="220" filterUnits="userSpaceOnUse" color-interpolation-filters="sRGB">
<feFlood flood-opacity="0" result="BackgroundImageFix"/>
<feBlend mode="normal" in="SourceGraphic" in2="BackgroundImageFix" result="shape"/>
<feGaussianBlur stdDeviation="30" result="effect1_foregroundBlur_862_12479"/>
</filter>
<filter id="filter3_f_862_12479" x="255" y="186" width="220" height="220" filterUnits="userSpaceOnUse" color-interpolation-filters="sRGB">
<feFlood flood-opacity="0" result="BackgroundImageFix"/>
<feBlend mode="normal" in="SourceGraphic" in2="BackgroundImageFix" result="shape"/>
<feGaussianBlur stdDeviation="30" result="effect1_foregroundBlur_862_12479"/>
</filter>
<filter id="filter4_f_862_12479" x="105" y="259" width="270" height="277" filterUnits="userSpaceOnUse" color-interpolation-filters="sRGB">
<feFlood flood-opacity="0" result="BackgroundImageFix"/>
<feBlend mode="normal" in="SourceGraphic" in2="BackgroundImageFix" result="shape"/>
<feGaussianBlur stdDeviation="15" result="effect1_foregroundBlur_862_12479"/>
</filter>
<filter id="filter5_f_862_12479" x="124" y="256" width="235.407" height="207.971" filterUnits="userSpaceOnUse" color-interpolation-filters="sRGB">
<feFlood flood-opacity="0" result="BackgroundImageFix"/>
<feBlend mode="normal" in="SourceGraphic" in2="BackgroundImageFix" result="shape"/>
<feGaussianBlur stdDeviation="3" result="effect1_foregroundBlur_862_12479"/>
</filter>
<radialGradient id="paint0_radial_862_12479" cx="0" cy="0" r="1" gradientUnits="userSpaceOnUse" gradientTransform="translate(241 -4.53898e-06) rotate(90) scale(482)">
<stop stop-color="#FFDE43"/>
<stop offset="1" stop-color="#FFBC00"/>
</radialGradient>
<radialGradient id="paint1_radial_862_12479" cx="0" cy="0" r="1" gradientUnits="userSpaceOnUse" gradientTransform="translate(241 64.5) rotate(90) scale(417.5)">
<stop stop-color="white" stop-opacity="0.5"/>
<stop offset="0.782278"/>
</radialGradient>
<radialGradient id="paint2_radial_862_12479" cx="0" cy="0" r="1" gradientUnits="userSpaceOnUse" gradientTransform="translate(241 64.5) rotate(90) scale(417.5)">
<stop stop-color="white" stop-opacity="0.5"/>
<stop offset="0.782278"/>
</radialGradient>
<radialGradient id="paint3_radial_862_12479" cx="0" cy="0" r="1" gradientUnits="userSpaceOnUse" gradientTransform="translate(241 -52.5) rotate(90) scale(534.5 722.835)">
<stop offset="0.0922635" stop-color="white"/>
<stop offset="0.670207" stop-color="white" stop-opacity="0"/>
</radialGradient>
<radialGradient id="paint4_radial_862_12479" cx="0" cy="0" r="1" gradientUnits="userSpaceOnUse" gradientTransform="translate(164.213 194.425) scale(53.8858 44.7024)">
<stop stop-color="#743C1C"/>
<stop offset="1" stop-color="#401C02"/>
</radialGradient>
<linearGradient id="paint5_linear_862_12479" x1="164.271" y1="241.591" x2="164.271" y2="146.958" gradientUnits="userSpaceOnUse">
<stop stop-color="#FFDE43"/>
<stop offset="0.22" stop-color="#FED93F"/>
<stop offset="0.51" stop-color="#FCC934"/>
<stop offset="0.82" stop-color="#F9AF21"/>
<stop offset="1" stop-color="#F79D14"/>
</linearGradient>
<radialGradient id="paint6_radial_862_12479" cx="0" cy="0" r="1" gradientUnits="userSpaceOnUse" gradientTransform="translate(318.622 194.563) scale(41.65 45.3985)">
<stop stop-color="#743C1C"/>
<stop offset="1" stop-color="#401C02"/>
</radialGradient>
<radialGradient id="paint7_radial_862_12479" cx="0" cy="0" r="1" gradientUnits="userSpaceOnUse" gradientTransform="translate(318.568 194.401) scale(53.9168 44.7275)">
<stop stop-color="#743C1C"/>
<stop offset="1" stop-color="#401C02"/>
</radialGradient>
<linearGradient id="paint8_linear_862_12479" x1="318.627" y1="241.593" x2="318.627" y2="146.907" gradientUnits="userSpaceOnUse">
<stop stop-color="#FFDE43"/>
<stop offset="0.22" stop-color="#FED93F"/>
<stop offset="0.51" stop-color="#FCC934"/>
<stop offset="0.82" stop-color="#F9AF21"/>
<stop offset="1" stop-color="#F79D14"/>
</linearGradient>
<radialGradient id="paint9_radial_862_12479" cx="0" cy="0" r="1" gradientUnits="userSpaceOnUse" gradientTransform="translate(241 64.5) rotate(90) scale(417.5)">
<stop stop-color="white" stop-opacity="0.5"/>
<stop offset="0.782278"/>
</radialGradient>
<radialGradient id="paint10_radial_862_12479" cx="0" cy="0" r="1" gradientUnits="userSpaceOnUse" gradientTransform="translate(231.778 365.502) rotate(-58.01) scale(112.92 112.92)">
<stop offset="0.01" stop-color="#FFDE43"/>
<stop offset="0.4" stop-color="#FFDC41"/>
<stop offset="0.6" stop-color="#FFD43B"/>
<stop offset="0.77" stop-color="#FFC631"/>
<stop offset="0.91" stop-color="#FFB323"/>
<stop offset="1" stop-color="#FFA216"/>
</radialGradient>
<radialGradient id="paint11_radial_862_12479" cx="0" cy="0" r="1" gradientUnits="userSpaceOnUse" gradientTransform="translate(231.778 365.502) rotate(-58.01) scale(112.92 112.92)">
<stop offset="0.01" stop-color="#FFDE43"/>
<stop offset="0.4" stop-color="#FFDC41"/>
<stop offset="0.6" stop-color="#FFD43B"/>
<stop offset="0.77" stop-color="#FFC631"/>
<stop offset="0.91" stop-color="#FFB323"/>
<stop offset="1" stop-color="#FFA216"/>
</radialGradient>
</defs>
</svg>
